<?xml version="1.0" encoding="UTF-8"?>
<svg width="14px" height="14px" viewBox="0 0 14 14" version="1.1" xmlns="http://www.w3.org/2000/svg" xmlns:xlink="http://www.w3.org/1999/xlink">
    <title>icons/social/inst/inst</title>
    <g id="Symbols" stroke="none" stroke-width="1" fill="none" fill-rule="evenodd">
        <g id="header/static" transform="translate(-863.000000, -17.000000)" fill="#FFFFFF" fill-rule="nonzero">
            <g id="Соцсети" transform="translate(768.000000, 10.000000)">
                <g id="ФБ" transform="translate(88.000000, 0.000000)">
                    <g id="icons/social/inst/inst" transform="translate(7.000000, 7.000000)">
                        <path d="M13.9440333,4.10721248 C13.911306,3.36493359 13.7912707,2.85462352 13.6193196,2.41243301 C13.4419316,1.94305861 13.1690272,1.52282833 12.8114797,1.17348928 C12.4621406,0.81871345 12.0391387,0.543037294 11.575201,0.368421053 C11.130452,0.196469914 10.622807,0.0764345692 9.88052814,0.043707345 C9.13270591,0.00820844834 8.89530032,0 6.99861416,0 C5.101928,0 4.86452242,0.00820844834 4.11947186,0.0409356725 C3.37719298,0.0736628967 2.86688291,0.193804811 2.42479896,0.36564938 C1.955318,0.543037294 1.53508772,0.815941778 1.18574867,1.17348928 C0.830972838,1.52282833 0.555403251,1.94583028 0.380680441,2.4097679 C0.208729302,2.85462352 0.0886939571,3.36216192 0.0559667329,4.1044408 C0.0204678363,4.85226303 0.0122593879,5.08966862 0.0122593879,6.98635478 C0.0122593879,8.88304094 0.0204678363,9.12044652 0.0531950604,9.86549708 C0.0859222846,10.607776 0.206064199,11.118086 0.378015337,11.5602765 C0.555403251,12.0296509 0.830972838,12.4498812 1.18574867,12.7992203 C1.53508772,13.1539961 1.95808967,13.4296723 2.42202729,13.6042885 C2.86688291,13.7762396 3.37442131,13.896275 4.11680676,13.9290022 C4.86175074,13.961836 5.0992629,13.9699379 6.99594906,13.9699379 C8.89263522,13.9699379 9.13004081,13.961836 9.87509136,13.9290022 C10.6173702,13.896275 11.1276803,13.7762396 11.5697643,13.6042885 C12.5086196,13.2413042 13.2508985,12.4990253 13.6138828,11.5602765 C13.7857274,11.1154209 13.9058693,10.607776 13.9385965,9.86549708 C13.9713237,9.12044652 13.9795322,8.88304094 13.9795322,6.98635478 C13.9795322,5.08966862 13.9767605,4.85226303 13.9440333,4.10721248 Z M12.6860075,9.81091618 C12.6559454,10.4931774 12.5413468,10.8615984 12.4458303,11.1072125 C12.2110898,11.7158108 11.7280702,12.1988304 11.1194719,12.4335709 C10.8738578,12.5290875 10.5027717,12.643686 9.82317557,12.6736416 C9.08633346,12.7064754 8.86534477,12.7145773 7.00138584,12.7145773 C5.1374269,12.7145773 4.91366654,12.7064754 4.17948954,12.6736416 C3.49722833,12.643686 3.12880727,12.5290875 2.88319324,12.4335709 C2.5803332,12.3216374 2.30465705,12.1442495 2.08089669,11.9122807 C1.84892788,11.6857487 1.67153996,11.4128442 1.5596065,11.1099841 C1.46408993,10.8643701 1.34949136,10.4931774 1.31953581,9.81368785 C1.28670201,9.07684575 1.27860013,8.85575049 1.27860013,6.99179155 C1.27860013,5.12783262 1.28670201,4.90407225 1.31953581,4.17000182 C1.34949136,3.48774061 1.46408993,3.11931956 1.5596065,2.87370552 C1.67153996,2.57073892 1.84892788,2.29516933 2.08366836,2.0713024 C2.31009382,1.83933359 2.58299831,1.66194568 2.88596491,1.55011878 C3.13157895,1.45460221 3.50277167,1.34000364 4.18226121,1.30994152 C4.91910331,1.2772143 5.14019857,1.26900585 7.00405094,1.26900585 C8.87078155,1.26900585 9.09177024,1.2772143 9.82594724,1.30994152 C10.5082084,1.34000364 10.8766295,1.45460221 11.1222435,1.55011878 C11.4251036,1.66194568 11.7007797,1.83933359 11.9245401,2.0713024 C12.1565089,2.29783444 12.3338968,2.57073892 12.4458303,2.87370552 C12.5413468,3.11931956 12.6559454,3.49040572 12.6860075,4.17000182 C12.7187348,4.90684393 12.7269432,5.12783262 12.7269432,6.99179155 C12.7269432,8.85575049 12.7187348,9.07407407 12.6860075,9.81091618 Z" id="Shape"/>
                        <path d="M6.99861416,3.39766082 C5.01739156,3.39766082 3.40992021,5.0050256 3.40992021,6.98635478 C3.40992021,8.96768395 5.01739156,10.5750487 6.99861416,10.5750487 C8.97994334,10.5750487 10.5873081,8.96768395 10.5873081,6.98635478 C10.5873081,5.0050256 8.97994334,3.39766082 6.99861416,3.39766082 Z M6.99861416,9.31425133 C5.71329799,9.31425133 4.67071761,8.27177752 4.67071761,6.98635478 C4.67071761,5.70093203 5.71329799,4.65845822 6.99861416,4.65845822 C8.28403691,4.65845822 9.32651072,5.70093203 9.32651072,6.98635478 C9.32651072,8.27177752 8.28403691,9.31425133 6.99861416,9.31425133 L6.99861416,9.31425133 Z" id="Shape"/>
                        <path d="M11.5670992,3.2557718 C11.5670992,3.71843018 11.1919621,4.09356725 10.7291971,4.09356725 C10.2665387,4.09356725 9.89140169,3.71843018 9.89140169,3.2557718 C9.89140169,2.79300682 10.2665387,2.41797635 10.7291971,2.41797635 C11.1919621,2.41797635 11.5670992,2.79300682 11.5670992,3.2557718 L11.5670992,3.2557718 Z" id="Path"/>
                    </g>
                </g>
            </g>
        </g>
    </g>
</svg>