<?xml version="1.0" encoding="UTF-8"?>
<svg width="156px" height="24px" viewBox="0 0 156 24" version="1.1" xmlns="http://www.w3.org/2000/svg" xmlns:xlink="http://www.w3.org/1999/xlink">
    <title>appstorrent-logo</title>
    <g id="Symbols" stroke="none" stroke-width="1" fill="none" fill-rule="evenodd">
        <g id="nav/guest" transform="translate(-50.000000, -46.000000)" fill-rule="nonzero">
            <g id="appstorrent-logo" transform="translate(50.000000, 46.000000)">
                <g id="appstorrent" transform="translate(32.703125, 3.425781)">
                    <path d="M4.16015625,15.7851562 C5.80078125,15.7851562 7.18359375,14.9648438 7.8984375,13.6640625 L7.96875,13.6640625 L7.96875,15.5742188 L10.8867188,15.5742188 L10.8867188,7.03125 C10.8867188,4.53515625 8.8828125,2.89453125 5.77734375,2.89453125 C2.625,2.89453125 0.71484375,4.546875 0.5390625,6.75 L0.52734375,6.890625 L3.234375,6.890625 L3.2578125,6.78515625 C3.4453125,5.87109375 4.2890625,5.2265625 5.671875,5.2265625 C7.1484375,5.2265625 7.96875,5.98828125 7.96875,7.2421875 L7.96875,8.09765625 L4.72265625,8.296875 C1.7109375,8.484375 0,9.80859375 0,12.0117188 L0,12.0351562 C0,14.25 1.67578125,15.7851562 4.16015625,15.7851562 Z M5.02734375,13.5585938 C3.75,13.5585938 2.90625,12.9375 2.90625,11.9179688 L2.90625,11.90625 C2.90625,10.921875 3.69140625,10.3007812 5.1328125,10.2070312 L7.96875,10.03125 L7.96875,10.96875 C7.96875,12.4453125 6.703125,13.5585938 5.02734375,13.5585938 Z M16.1484375,19.6757812 L16.1484375,13.4765625 L16.2070312,13.4765625 C16.9101562,14.9296875 18.328125,15.8203125 20.0976562,15.8203125 C23.2148438,15.8203125 25.2070312,13.359375 25.2070312,9.375 L25.2070312,9.36328125 C25.2070312,5.35546875 23.2148438,2.89453125 20.0625,2.89453125 C18.28125,2.89453125 16.921875,3.80859375 16.2070312,5.296875 L16.1484375,5.296875 L16.1484375,3.15234375 L13.2304688,3.15234375 L13.2304688,19.6757812 L16.1484375,19.6757812 Z M19.1953125,13.359375 C17.390625,13.359375 16.125,11.8007812 16.125,9.375 L16.125,9.36328125 C16.125,6.92578125 17.390625,5.35546875 19.1953125,5.35546875 C21.0585938,5.35546875 22.2304688,6.87890625 22.2304688,9.36328125 L22.2304688,9.375 C22.2304688,11.8242188 21.0585938,13.359375 19.1953125,13.359375 Z M30,19.6757812 L30,13.4765625 L30.0585938,13.4765625 C30.7617188,14.9296875 32.1796875,15.8203125 33.9492188,15.8203125 C37.0664062,15.8203125 39.0585938,13.359375 39.0585938,9.375 L39.0585938,9.36328125 C39.0585938,5.35546875 37.0664062,2.89453125 33.9140625,2.89453125 C32.1328125,2.89453125 30.7734375,3.80859375 30.0585938,5.296875 L30,5.296875 L30,3.15234375 L27.0820312,3.15234375 L27.0820312,19.6757812 L30,19.6757812 Z M33.046875,13.359375 C31.2421875,13.359375 29.9765625,11.8007812 29.9765625,9.375 L29.9765625,9.36328125 C29.9765625,6.92578125 31.2421875,5.35546875 33.046875,5.35546875 C34.9101562,5.35546875 36.0820312,6.87890625 36.0820312,9.36328125 L36.0820312,9.375 C36.0820312,11.8242188 34.9101562,13.359375 33.046875,13.359375 Z M45.7851562,15.8203125 C48.8320312,15.8203125 51,14.25 51,11.90625 L51,11.8945312 C51,10.0898438 50.0039062,9.08203125 47.4375,8.5078125 L45.3632812,8.05078125 C44.0742188,7.7578125 43.59375,7.2890625 43.59375,6.57421875 L43.59375,6.5625 C43.59375,5.6484375 44.4023438,5.05078125 45.6914062,5.05078125 C47.0507812,5.05078125 47.8476562,5.77734375 47.9765625,6.7734375 L47.9882812,6.8671875 L50.7070312,6.8671875 L50.6953125,6.73828125 C50.5898438,4.59375 48.7851562,2.89453125 45.6914062,2.89453125 C42.6914062,2.89453125 40.7109375,4.4296875 40.7109375,6.703125 L40.7109375,6.71484375 C40.7109375,8.5546875 41.90625,9.71484375 44.2851562,10.2421875 L46.3476562,10.6992188 C47.6367188,10.9921875 48.0703125,11.4140625 48.0703125,12.1640625 L48.0703125,12.1757812 C48.0703125,13.0898438 47.2148438,13.6640625 45.796875,13.6640625 C44.3203125,13.6640625 43.5117188,13.03125 43.2890625,11.9648438 L43.265625,11.859375 L40.3945312,11.859375 L40.40625,11.9648438 C40.6640625,14.2734375 42.5273438,15.8203125 45.7851562,15.8203125 Z" id="apps" fill="#FFFFFF"></path>
                    <path d="M57.46875,15.8203125 C58.0546875,15.8203125 58.5703125,15.7617188 58.9101562,15.7148438 L58.9101562,13.5234375 C58.7109375,13.5351562 58.4882812,13.5703125 58.2070312,13.5703125 C57.140625,13.5703125 56.6015625,13.1835938 56.6015625,11.9648438 L56.6015625,5.40234375 L58.9101562,5.40234375 L58.9101562,3.15234375 L56.6015625,3.15234375 L56.6015625,0 L53.6367188,0 L53.6367188,3.15234375 L51.8789062,3.15234375 L51.8789062,5.40234375 L53.6367188,5.40234375 L53.6367188,12.2109375 C53.6367188,14.765625 54.8671875,15.8203125 57.46875,15.8203125 Z M66.1640625,15.8203125 C69.8085938,15.8203125 72.1757812,13.3945312 72.1757812,9.36328125 L72.1757812,9.33984375 C72.1757812,5.33203125 69.7734375,2.89453125 66.1523438,2.89453125 C62.5429688,2.89453125 60.1523438,5.35546875 60.1523438,9.33984375 L60.1523438,9.36328125 C60.1523438,13.3828125 62.5078125,15.8203125 66.1640625,15.8203125 Z M66.1757812,13.4648438 C64.3125,13.4648438 63.1289062,11.9765625 63.1289062,9.36328125 L63.1289062,9.33984375 C63.1289062,6.76171875 64.3359375,5.26171875 66.1523438,5.26171875 C68.0039062,5.26171875 69.1992188,6.75 69.1992188,9.33984375 L69.1992188,9.36328125 C69.1992188,11.9648438 68.015625,13.4648438 66.1757812,13.4648438 Z M76.96875,15.5742188 L76.96875,8.296875 C76.96875,6.55078125 77.9648438,5.484375 79.6171875,5.484375 C80.109375,5.484375 80.5546875,5.5546875 80.8007812,5.6484375 L80.8007812,3.01171875 C80.578125,2.953125 80.2382812,2.89453125 79.875,2.89453125 C78.4101562,2.89453125 77.3203125,3.7734375 76.9453125,5.2265625 L76.8867188,5.2265625 L76.8867188,3.15234375 L74.0507812,3.15234375 L74.0507812,15.5742188 L76.96875,15.5742188 Z M85.21875,15.5742188 L85.21875,8.296875 C85.21875,6.55078125 86.2148438,5.484375 87.8671875,5.484375 C88.359375,5.484375 88.8046875,5.5546875 89.0507812,5.6484375 L89.0507812,3.01171875 C88.828125,2.953125 88.4882812,2.89453125 88.125,2.89453125 C86.6601562,2.89453125 85.5703125,3.7734375 85.1953125,5.2265625 L85.1367188,5.2265625 L85.1367188,3.15234375 L82.3007812,3.15234375 L82.3007812,15.5742188 L85.21875,15.5742188 Z M95.5429688,15.8203125 C98.7890625,15.8203125 100.617188,13.8984375 101.003906,11.9882812 L101.039062,11.859375 L98.3085938,11.859375 L98.2851562,11.9414062 C98.0039062,12.7734375 97.0546875,13.546875 95.6015625,13.546875 C93.703125,13.546875 92.5078125,12.2578125 92.4609375,10.078125 L101.15625,10.078125 L101.15625,9.140625 C101.15625,5.390625 98.953125,2.89453125 95.4023438,2.89453125 C91.8515625,2.89453125 89.5664062,5.47265625 89.5664062,9.38671875 L89.5664062,9.3984375 C89.5664062,13.3476562 91.8164062,15.8203125 95.5429688,15.8203125 Z M98.3203125,8.1328125 L92.4960938,8.1328125 C92.7304688,6.22265625 93.890625,5.1796875 95.4375,5.1796875 C96.984375,5.1796875 98.109375,6.1640625 98.3203125,8.1328125 Z M105.949219,15.5742188 L105.949219,8.3671875 C105.949219,6.57421875 107.015625,5.35546875 108.691406,5.35546875 C110.355469,5.35546875 111.175781,6.3515625 111.175781,8.12109375 L111.175781,15.5742188 L114.09375,15.5742188 L114.09375,7.53515625 C114.09375,4.65234375 112.535156,2.89453125 109.804688,2.89453125 C107.917969,2.89453125 106.652344,3.76171875 106.007812,5.09765625 L105.949219,5.09765625 L105.949219,3.15234375 L103.03125,3.15234375 L103.03125,15.5742188 L105.949219,15.5742188 Z M121.042969,15.8203125 C121.628906,15.8203125 122.144531,15.7617188 122.484375,15.7148438 L122.484375,13.5234375 C122.285156,13.5351562 122.0625,13.5703125 121.78125,13.5703125 C120.714844,13.5703125 120.175781,13.1835938 120.175781,11.9648438 L120.175781,5.40234375 L122.484375,5.40234375 L122.484375,3.15234375 L120.175781,3.15234375 L120.175781,0 L117.210938,0 L117.210938,3.15234375 L115.453125,3.15234375 L115.453125,5.40234375 L117.210938,5.40234375 L117.210938,12.2109375 C117.210938,14.765625 118.441406,15.8203125 121.042969,15.8203125 Z" id="torrent" fill="#8E8E8E"></path>
                </g>
                <g id="Combined-Shape" transform="translate(0.000000, -0.000000)" fill="#FFFFFF">
                    <path d="M1.38461541,19.3846153 C1.90600311,19.3846153 2.36008209,19.6727982 2.59625632,20.098568 L3.28984618,19.404923 C3.63830771,19.7887692 4.03676925,20.1251794 4.47828634,20.3997307 L4.74830771,20.556923 L4.15459771,21.1499898 C4.65503496,21.3930937 5,21.9062614 5,22.5 C5,23.3284271 4.32842712,24 3.5,24 C2.67157288,24 2,23.3284271 2,22.5 C2,22.3073079 2.03633392,22.1231021 2.10252439,21.9538599 C1.89338257,22.0805519 1.64755838,22.1538461 1.38461541,22.1538461 C0.619913451,22.1538461 2.91785647e-08,21.5339327 2.91785647e-08,20.7692307 C2.91785647e-08,20.0045288 0.619913451,19.3846153 1.38461541,19.3846153 Z M22.6153846,19.3846153 C23.3800865,19.3846153 24,20.0045288 24,20.7692307 C24,21.5339327 23.3800865,22.1538461 22.6153846,22.1538461 C22.4010333,22.1538461 22.1980584,22.1051383 22.0169241,22.0181869 C22.1051383,22.1980584 22.1538461,22.4010333 22.1538461,22.6153846 C22.1538461,23.3800865 21.5339327,23.9999999 20.7692307,23.9999999 C20.0045288,23.9999999 19.3846154,23.3800865 19.3846154,22.6153846 C19.3846154,22.0939969 19.6727983,21.6399179 20.098568,21.4037437 L19.2516923,20.5578461 C19.7101538,20.3078461 20.1269487,19.9937435 20.4951325,19.6299615 L20.7101538,19.4058461 L21.4031884,20.0995701 C21.6392057,19.6732505 22.093588,19.3846153 22.6153846,19.3846153 Z M12,2 C17,2 21,6 21,11 C21,12.4145455 20.9137966,13.2438199 20,15 C21,17 19.3076923,19.4261539 16,19 C15,20 15.02,22 14,22 L14,22 L10,22 C8.98,22 9,20 8,19 C5.69230768,19.4261539 3,17 4,15 C3.41476923,13.8063636 3,12.4145455 3,11 C3,6 7,2 12,2 Z M12,17 C11.448,17 11,17.448 11,18 C11,18.552 13,18.552 13,18 C13,17.448 12.552,17 12,17 Z M8.5,11 C7.119,11 6,12.119 6,13.5 C6,14.881 7.119,16 8.5,16 C9.881,16 11,14.881 11,13.5 C11,12.119 9.881,11 8.5,11 Z M16,12 C14.8952,12 14,12.8952 14,14 C14,15.1048 14.8952,16 16,16 C17.1048,16 18,15.1048 18,14 C18,12.8952 17.1048,12 16,12 Z M20.9230769,-1.99174011e-13 C21.4177523,-1.99174011e-13 21.8748513,0.263906192 22.122189,0.692307685 C22.3420447,1.07310901 22.3664732,1.53245723 22.1954742,1.93071343 L22.138,2.044 L22.2557587,2.01998631 C22.3357496,2.0067936 22.4173912,2 22.5,2 C23.0358984,2 23.5310889,2.28589837 23.7990381,2.74999998 C24.0669873,3.21410159 24.0669873,3.78589835 23.7990381,4.24999996 C23.5310889,4.71410157 23.0358984,5 22.5,5 C21.9641016,5 21.4689111,4.71410157 21.2009619,4.24999996 C21.1834131,4.21960457 21.1670136,4.18874725 21.1517635,4.15748849 L20.8578461,4.45384614 C20.5795384,4.08276922 20.2804615,3.72882691 19.9598365,3.39513461 L19.632,3.06830768 L20.1586093,2.53906653 C19.9827979,2.42266336 19.8329995,2.26577674 19.7239648,2.07692308 C19.476627,1.64852158 19.476627,1.12070918 19.7239648,0.692307685 C19.9713025,0.263906192 20.4284014,-1.99174011e-13 20.9230769,-1.99174011e-13 Z M3.23076925,-2.55129251e-13 C3.72544469,-2.55129251e-13 4.18254364,0.263906192 4.42988136,0.692307685 C4.67721908,1.12070918 4.67721908,1.64852158 4.42988136,2.07692308 C4.30157492,2.29915635 4.1168214,2.47712368 3.89965719,2.59694767 L4.37076925,3.06646153 C4.03569233,3.38561538 3.7224231,3.72605768 3.43018271,4.08506249 L3.1449231,4.45015384 L2.595,3.9 L2.58372753,3.92307692 C2.36112358,4.30863827 1.96861303,4.56095841 1.53171856,4.60756683 L1.38461541,4.6153846 C0.889939972,4.6153846 0.432841013,4.35147842 0.185503291,3.92307692 C-0.0618344305,3.49467543 -0.0618344305,2.96686302 0.185503291,2.53846152 C0.432841013,2.11006003 0.889939972,1.84615384 1.38461541,1.84615384 C1.59650788,1.84615384 1.80150579,1.89457553 1.98607658,1.98360588 C1.78550569,1.57589194 1.80144859,1.09104058 2.03165714,0.692307685 C2.27899486,0.263906192 2.73609382,-2.55129251e-13 3.23076925,-2.55129251e-13 Z"></path>
                </g>
            </g>
        </g>
    </g>
</svg>