<?xml version="1.0" encoding="UTF-8"?>
<svg width="20px" height="20px" viewBox="0 0 20 20" version="1.1" xmlns="http://www.w3.org/2000/svg" xmlns:xlink="http://www.w3.org/1999/xlink">
    <title>icons/search/search</title>
    <g id="Symbols" stroke="none" stroke-width="1" fill="none" fill-rule="evenodd">
        <g id="header/static" transform="translate(-24.000000, -14.000000)" fill="#8E8E8E" fill-rule="nonzero">
            <g id="Поиск">
                <path d="M32.3282952,14 C27.7385693,14 24,17.7385693 24,22.3282952 C24,26.9180212 27.7385693,30.6565904 32.3282952,30.6565904 C34.3241778,30.6565904 36.1571332,29.9478409 37.593665,28.7713376 L42.5662427,33.7439153 C42.7751302,33.9614843 43.0853179,34.049127 43.3771764,33.9730424 C43.6690349,33.8969577 43.8969577,33.6690349 43.9730424,33.3771764 C44.049127,33.0853179 43.9614843,32.7751302 43.7439153,32.5662427 L38.7713376,27.593665 C39.9478409,26.1571332 40.6565904,24.3241778 40.6565904,22.3282952 C40.6565904,17.7385693 36.9180212,14 32.3282952,14 Z M32.3282952,15.665659 C36.0178324,15.665659 38.9909314,18.6387583 38.9909314,22.3282952 C38.9909314,26.0178324 36.0178324,28.9909314 32.3282952,28.9909314 C28.6387583,28.9909314 25.665659,26.0178324 25.665659,22.3282952 C25.665659,18.6387583 28.6387583,15.665659 32.3282952,15.665659 Z" id="icons/search/search"/>
            </g>
        </g>
    </g>
</svg>