<?xml version="1.0" encoding="UTF-8"?>
<svg width="14px" height="14px" viewBox="0 0 14 14" version="1.1" xmlns="http://www.w3.org/2000/svg" xmlns:xlink="http://www.w3.org/1999/xlink">
    <title>icons/social/tg/tg</title>
    <g id="Symbols" stroke="none" stroke-width="1" fill="none" fill-rule="evenodd">
        <g id="header/static" transform="translate(-819.000000, -17.000000)">
            <g id="Соцсети" transform="translate(768.000000, 10.000000)">
                <g id="ТГ" transform="translate(44.000000, 0.000000)">
                    <g id="icons/social/tg/tg" transform="translate(7.000000, 7.000000)">
                        <rect id="Rectangle" x="0" y="0" width="14" height="14"/>
                        <path d="M13.412,1.56000179 L11.31424,12.2705618 C11.31424,12.2705618 11.22408,12.7600018 10.61704,12.7600018 C10.29448,12.7600018 10.12816,12.6065618 10.12816,12.6065618 L5.58432,8.83608179 L3.36112,7.71552179 L0.50792,6.95672179 C0.50792,6.95672179 0,6.81000179 0,6.39000179 C0,6.04000179 0.52248,5.87312179 0.52248,5.87312179 L12.45944,1.13104179 C12.45888,1.13048179 12.824,0.99944179 13.09,1 C13.25352,1 13.44,1.07000179 13.44,1.28000179 C13.44,1.42000179 13.412,1.56000179 13.412,1.56000179 Z" id="Path" fill="#FFFFFF" fill-rule="nonzero"/>
                        <path d="M7.28,10.2428018 L5.36144,12.1322418 C5.36144,12.1322418 5.278,12.1966418 5.16656,12.1994418 C5.12792,12.2005618 5.08648,12.1944018 5.04392,12.1753618 L5.58376,8.83496179 L7.28,10.2428018 Z" id="Path" fill="#B0BEC5" fill-rule="nonzero"/>
                        <path d="M11.14232,3.34976179 C11.04768,3.22656179 10.87296,3.20416179 10.74976,3.29768179 L3.36,7.72000179 C3.36,7.72000179 4.53936,11.0195218 4.71912,11.5907218 C4.89944,12.1624818 5.04392,12.1759218 5.04392,12.1759218 L5.58376,8.83552179 L11.08968,3.74176179 C11.21288,3.64824179 11.23584,3.47296179 11.14232,3.34976179 Z" id="Path" fill="#CFD8DC" fill-rule="nonzero"/>
                    </g>
                </g>
            </g>
        </g>
    </g>
</svg>