<?xml version="1.0" encoding="UTF-8"?>
<svg width="14px" height="14px" viewBox="0 0 14 14" version="1.1" xmlns="http://www.w3.org/2000/svg" xmlns:xlink="http://www.w3.org/1999/xlink">
    <title>icons/social/vk/vk</title>
    <g id="Symbols" stroke="none" stroke-width="1" fill="none" fill-rule="evenodd">
        <g id="header/static" transform="translate(-775.000000, -17.000000)">
            <g id="Соцсети" transform="translate(768.000000, 10.000000)">
                <g id="icons/social/vk/vk" transform="translate(7.000000, 7.000000)">
                    <rect id="Rectangle" x="0" y="0" width="14" height="14"/>
                    <path d="M13.9630634,3.1246 C13.9898964,3.034 14.0027296,2.95 13.9992296,2.875 C13.9904797,2.6578 13.8452317,2.5 13.5034029,2.5 L11.9762566,2.5 C11.5906785,2.5 11.4127642,2.74 11.3089322,2.9806 C11.3089322,2.9806 10.3569449,4.996 9.2597096,6.325 C8.90388102,6.7096 8.7230501,6.7 8.53055268,6.7 C8.42730406,6.7 8.16655754,6.5716 8.16655754,6.2194 L8.16655754,3.1084 C8.16655754,2.692 8.06564222,2.5 7.73956325,2.5 L5.02768282,2.5 C4.79026932,2.5 4.66660431,2.692 4.66660431,2.8846 C4.66660431,3.2848 5.19043064,3.3808 5.24992985,4.5022 L5.24992985,6.676 C5.24992985,7.204 5.16068104,7.3 4.96818361,7.3 C4.44902388,7.3 3.42703754,5.5 2.74279668,3.1408 C2.594632,2.6764 2.44646731,2.5 2.06088913,2.5 L0.519159729,2.5 C0.0740823434,2.5 0,2.7244 0,2.9644 C0,3.397 0.349995323,5.7358 2.26038646,8.425 C3.64578462,10.375 5.47101023,11.5 7.08682197,11.5 C8.06564222,11.5 8.16597421,11.2438 8.16597421,10.8436 L8.16597421,9.0604 C8.16655754,8.5798 8.27330611,8.5 8.58480195,8.5 C8.80704898,8.5 9.26029292,8.65 10.1352812,9.7 C11.1444344,10.9108 11.3275986,11.5 11.9062576,11.5 L13.4334038,11.5 C13.7880658,11.5 13.9916464,11.347 13.9998129,11.05 C14.0015629,10.9744 13.991063,10.8898 13.9671467,10.7956 C13.8539815,10.45 13.3348218,9.6052 12.6873305,8.8 C12.3285853,8.3542 11.9745067,7.9126 11.8117588,7.6726 C11.702677,7.516 11.6612608,7.4056 11.6665108,7.3 C11.6717607,7.189 11.72776,7.0834 11.8117588,6.9358 C11.7965924,6.9358 13.770566,4.0852 13.9630634,3.1246 Z" id="Path" fill="#FFFFFF" fill-rule="nonzero"/>
                </g>
            </g>
        </g>
    </g>
</svg>